<svg preserveAspectRatio="none" width="100%" height="100%" overflow="visible" style="display: block;" viewBox="0 0 13.2 9.6" fill="none" xmlns="http://www.w3.org/2000/svg">
<path id="Vector" d="M9.6 3.12L12.7278 0.93C12.7728 0.898473 12.8255 0.879898 12.8803 0.876301C12.9352 0.872703 12.9899 0.88422 13.0386 0.909597C13.0873 0.934973 13.1281 0.973235 13.1566 1.02021C13.185 1.06719 13.2001 1.12108 13.2 1.176V8.424C13.2001 8.47892 13.185 8.53281 13.1566 8.57979C13.1281 8.62676 13.0873 8.66503 13.0386 8.6904C12.9899 8.71578 12.9352 8.7273 12.8803 8.7237C12.8255 8.7201 12.7728 8.70153 12.7278 8.67L9.6 6.48V9C9.6 9.15913 9.53679 9.31174 9.42426 9.42426C9.31174 9.53679 9.15913 9.6 9 9.6H0.6C0.44087 9.6 0.288258 9.53679 0.175736 9.42426C0.0632141 9.31174 0 9.15913 0 9V0.6C0 0.44087 0.0632141 0.288258 0.175736 0.175736C0.288258 0.0632142 0.44087 0 0.6 0H9C9.15913 0 9.31174 0.0632142 9.42426 0.175736C9.53679 0.288258 9.6 0.44087 9.6 0.6V3.12ZM2.4 2.4V3.6H3.6V2.4H2.4Z" fill="var(--fill-0, #181D27)"/>
</svg>
