<svg preserveAspectRatio="none" width="100%" height="100%" overflow="visible" style="display: block;" viewBox="0 0 13.2 9.6" fill="none" xmlns="http://www.w3.org/2000/svg">
<path id="Vector" d="M9 0C9.3312 0 9.6 0.2688 9.6 0.6V3.12L12.7278 0.93C12.8634 0.8352 13.0506 0.8682 13.146 1.0044C13.1808 1.0548 13.2 1.1148 13.2 1.176V8.424C13.2 8.5896 13.0656 8.724 12.9 8.724C12.8382 8.724 12.7782 8.7048 12.7278 8.67L9.6 6.48V9C9.6 9.3312 9.3312 9.6 9 9.6H0.6C0.2688 9.6 0 9.3312 0 9V0.6C0 0.2688 0.2688 0 0.6 0H9ZM4.2 2.4V4.2H2.4V5.4H4.1994L4.2 7.2H5.4L5.3994 5.4H7.2V4.2H5.4V2.4H4.2Z" fill="var(--fill-0, #181D27)"/>
</svg>
