<svg preserveAspectRatio="none" width="100%" height="100%" overflow="visible" style="display: block;" viewBox="0 0 61.5457 22" fill="none" xmlns="http://www.w3.org/2000/svg">
<g id="Group 1">
<path id="Vector" d="M53.351 22C51.7241 22 50.288 21.6585 49.0427 20.9756C47.8175 20.2927 46.8635 19.3487 46.1806 18.1436C45.4977 16.9185 45.1562 15.5225 45.1562 13.9559C45.1562 12.3893 45.4977 11.0134 46.1806 9.82842C46.8635 8.6434 47.8175 7.71948 49.0427 7.05667C50.288 6.37378 51.7241 6.03233 53.351 6.03233C54.9979 6.03233 56.434 6.37378 57.6592 7.05667C58.8844 7.71948 59.8385 8.6434 60.5213 9.82842C61.2042 11.0134 61.5457 12.3893 61.5457 13.9559C61.5457 15.5225 61.1942 16.9185 60.4912 18.1436C59.8083 19.3487 58.8543 20.2927 57.6291 20.9756C56.4039 21.6585 54.9779 22 53.351 22ZM53.351 18.9571C54.1544 18.9571 54.8774 18.7562 55.5202 18.3545C56.1629 17.9327 56.665 17.3503 57.0265 16.6071C57.3881 15.8439 57.5688 14.9501 57.5688 13.9258C57.5688 12.4194 57.1671 11.2344 56.3637 10.3707C55.5804 9.50705 54.5762 9.07522 53.351 9.07522C52.1258 9.07522 51.1115 9.50705 50.3081 10.3707C49.5047 11.2344 49.103 12.4194 49.103 13.9258C49.103 14.9501 49.2837 15.8439 49.6453 16.6071C50.0269 17.3503 50.529 17.9327 51.1517 18.3545C51.7944 18.7562 52.5275 18.9571 53.351 18.9571Z" fill="var(--fill-0, black)"/>
<path id="Vector_2" d="M29.1694 21.8248C28.7891 21.8248 28.4811 21.5161 28.4819 21.1358L28.5127 7.01959C28.5135 6.64049 28.8211 6.33361 29.2002 6.33361H31.5324C31.9121 6.33361 32.2199 6.64141 32.2199 7.02109V9.9038C32.2199 9.92872 32.2401 9.94893 32.265 9.94893C32.29 9.94893 32.3102 9.96921 32.3102 9.99418L32.2785 21.1392C32.2774 21.5182 31.9699 21.8248 31.591 21.8248H29.1694ZM39.956 21.8248C39.5754 21.8248 39.2672 21.5155 39.2685 21.1349L39.2999 11.9976C39.2999 11.0536 39.0589 10.3406 38.5768 9.85854C38.0948 9.3765 37.3918 9.13548 36.4679 9.13548C35.6645 9.13548 34.9414 9.31624 34.2987 9.67778C33.6761 10.0393 33.184 10.5414 32.8225 11.1842C32.481 11.8269 32.3103 12.57 32.3103 13.4136L31.9388 9.92753C31.9256 9.80354 31.9457 9.67787 32.0012 9.5662C32.52 8.52187 33.2558 7.68537 34.2083 7.05667C35.2126 6.37378 36.4177 6.03233 37.8236 6.03233C39.4907 6.03233 40.7862 6.50433 41.7101 7.44833C42.6541 8.39233 43.1261 9.64765 43.1261 11.2143L43.0945 21.1395C43.0933 21.5183 42.7859 21.8248 42.407 21.8248H39.956Z" fill="var(--fill-0, black)"/>
<path id="Vector_3" d="M23.375 21.8293C22.9953 21.8293 22.6875 21.5215 22.6875 21.1419V7.02114C22.6875 6.64145 22.9953 6.33365 23.375 6.33365H25.7961C26.1758 6.33365 26.4836 6.64145 26.4836 7.02114V21.1419C26.4836 21.5215 26.1758 21.8293 25.7961 21.8293H23.375ZM23.375 3.85152C22.9953 3.85152 22.6875 3.54372 22.6875 3.16403V0.687483C22.6875 0.307797 22.9953 0 23.375 0H25.7961C26.1758 0 26.4836 0.307797 26.4836 0.687484V3.16403C26.4836 3.54372 26.1758 3.85152 25.7961 3.85152H23.375Z" fill="var(--fill-0, black)"/>
<g id="Group 3">
<path id="Vector_4" d="M0.687485 21.8201C0.307798 21.8201 0 21.5123 0 21.1326V0.694335C0 0.314648 0.307797 0.0068512 0.687484 0.0068512H3.22911C3.60879 0.0068512 3.91659 0.314648 3.91659 0.694335V21.1326C3.91659 21.5123 3.60879 21.8201 3.22911 21.8201H0.687485Z" fill="var(--fill-0, black)"/>
<path id="Union" d="M20.8831 20.6727C21.2916 21.1126 20.9797 21.828 20.3794 21.828H5.40233C5.02264 21.828 4.71484 21.5202 4.71484 21.1405V0.694197C4.71484 0.31451 5.02264 0.00671387 5.40233 0.00671387H19.1054C19.6969 0.00671387 20.0123 0.704214 19.6215 1.14833L11.8246 10.0099C11.5915 10.2748 11.5968 10.6732 11.837 10.9318L20.8831 20.6727Z" fill="var(--fill-0, black)"/>
</g>
</g>
</svg>
